<?xml version="1.0" standalone="no"?>
<!DOCTYPE svg PUBLIC "-//W3C//DTD SVG 20010904//EN"
 "http://www.w3.org/TR/2001/REC-SVG-20010904/DTD/svg10.dtd">
<svg version="1.0" xmlns="http://www.w3.org/2000/svg"
 width="4000.000000pt" height="989.000000pt" viewBox="0 0 4000.000000 989.000000"
 preserveAspectRatio="xMidYMid meet">

<g transform="translate(0.000000,989.000000) scale(0.100000,-0.100000)"
fill="#000000" stroke="none">
<path d="M6525 9570 c-707 -98 -1280 -266 -1744 -511 -305 -162 -569 -366
-727 -563 -63 -78 -64 -82 -64 -140 0 -33 16 -379 35 -770 20 -390 35 -721 33
-735 -3 -21 -49 20 -358 317 l-355 341 -90 -92 c-219 -224 -646 -858 -1197
-1777 -330 -549 -792 -1348 -849 -1465 -101 -210 -151 -399 -169 -633 -16
-207 4 -405 77 -767 64 -318 56 -530 -31 -817 -20 -65 -54 -159 -77 -210 -40
-94 -561 -1579 -555 -1585 1 -2 265 466 586 1039 320 574 635 1126 698 1228
299 480 882 1330 1501 2190 171 237 1223 1643 1254 1675 14 15 0 -46 -41 -170
-68 -209 -176 -397 -433 -755 -205 -287 -915 -1386 -1791 -2775 -469 -745
-520 -826 -515 -832 3 -3 169 11 369 31 432 43 840 81 1033 96 256 21 422 68
486 137 27 29 792 1204 787 1208 -2 2 -181 60 -398 130 -217 70 -402 131 -410
136 -11 6 4 16 55 39 39 17 347 153 685 303 l615 272 93 125 c219 292 628 874
874 1242 665 992 890 1452 973 1983 19 120 40 791 30 970 -7 138 -35 374 -70
590 -13 83 -31 202 -40 265 -26 188 -42 246 -80 284 -19 19 -23 19 -190 -4z"/>
<path d="M10945 8504 c-485 -36 -774 -106 -1100 -265 -800 -389 -1168 -1148
-990 -2035 80 -396 291 -721 635 -977 331 -246 652 -382 1695 -717 845 -272
1322 -604 1475 -1027 54 -151 74 -269 73 -448 0 -139 -4 -173 -26 -257 -133
-504 -608 -854 -1292 -954 -340 -49 -769 -18 -1111 80 -427 123 -785 337
-1148 686 -171 164 -198 180 -316 180 -83 0 -149 -31 -213 -99 -65 -69 -89
-123 -95 -207 -9 -137 36 -210 240 -393 181 -162 293 -250 478 -373 192 -128
483 -276 665 -338 648 -222 1530 -226 2140 -10 330 118 594 280 821 505 232
231 365 446 449 725 46 154 59 261 59 485 0 444 -79 748 -272 1045 -181 279
-422 481 -810 678 -239 122 -555 240 -997 373 -342 104 -824 292 -1080 422
-314 160 -560 378 -665 592 -103 210 -135 486 -84 732 108 522 598 881 1329
974 151 19 505 17 645 -4 257 -39 480 -107 699 -213 234 -113 399 -232 580
-419 127 -132 160 -149 272 -143 66 4 86 10 134 39 63 37 115 92 148 154 15
29 21 59 21 111 1 98 -35 167 -166 318 -170 197 -358 342 -603 466 -290 147
-658 253 -1025 294 -134 16 -469 27 -565 20z"/>
<path d="M15305 7891 c-92 -24 -173 -91 -216 -176 l-24 -50 -3 -597 -3 -597
-402 -3 -402 -3 -50 -25 c-115 -56 -171 -154 -163 -284 7 -111 62 -196 161
-248 41 -23 48 -23 449 -26 l407 -3 4 -1827 c3 -2006 0 -1902 63 -2118 45
-156 140 -312 253 -416 82 -74 228 -148 361 -182 113 -29 397 -51 509 -41 210
20 378 103 448 223 23 39 27 58 27 118 0 98 -38 175 -108 219 -45 27 -57 30
-135 30 -61 -1 -107 -8 -160 -24 -92 -30 -196 -25 -318 14 -108 34 -186 102
-238 209 -74 153 -69 15 -72 2008 l-4 1787 553 3 c545 3 554 3 593 25 47 25
106 84 131 133 28 52 27 199 -2 261 -27 58 -85 116 -143 143 -45 20 -60 21
-588 24 l-542 3 -3 607 c-3 571 -4 609 -22 642 -59 111 -144 168 -262 175 -38
2 -82 1 -99 -4z"/>
<path d="M19950 6604 c-195 -18 -404 -62 -570 -120 -663 -230 -1218 -815
-1459 -1540 -191 -570 -212 -1264 -56 -1868 205 -797 737 -1442 1420 -1719
486 -198 1047 -221 1530 -62 453 149 876 465 1126 844 l54 81 5 -347 c6 -393
6 -396 89 -486 59 -64 126 -91 226 -91 68 -1 88 3 137 27 33 16 76 49 102 78
83 93 76 -144 76 2491 0 2293 0 2349 -19 2398 -28 74 -82 134 -149 167 -49 24
-68 28 -142 28 -108 -1 -172 -27 -234 -96 -78 -86 -80 -98 -84 -477 l-3 -332
-61 92 c-319 486 -849 820 -1449 913 -100 15 -445 27 -539 19z m565 -607 c328
-61 573 -179 833 -399 299 -253 548 -688 646 -1128 46 -207 59 -358 53 -620
-9 -414 -75 -704 -237 -1036 -183 -376 -459 -674 -782 -844 -246 -129 -459
-186 -743 -197 -732 -28 -1343 350 -1674 1037 -167 348 -235 667 -235 1110 0
336 30 537 121 810 207 623 665 1075 1248 1230 174 47 294 60 505 55 103 -2
220 -10 265 -18z"/>
<path d="M26456 6600 c-202 -23 -448 -92 -654 -183 -357 -158 -723 -453 -931
-751 l-41 -59 0 310 0 310 -30 61 c-57 113 -144 166 -275 166 -103 0 -165 -26
-233 -98 -91 -96 -83 165 -80 -2496 3 -2251 4 -2357 21 -2391 31 -62 85 -116
145 -146 49 -24 69 -28 142 -28 69 1 94 5 130 24 57 29 125 94 153 146 l22 40
5 1600 6 1600 23 100 c96 425 406 791 861 1020 246 124 468 181 745 192 830
33 1316 -409 1394 -1267 7 -74 11 -662 11 -1662 0 -1544 0 -1547 21 -1603 28
-75 100 -147 171 -171 79 -28 189 -25 253 6 63 31 124 92 156 155 l24 50 0
1645 c0 1289 -3 1668 -13 1750 -93 752 -355 1210 -852 1487 -139 78 -368 148
-581 178 -134 19 -480 28 -593 15z"/>
<path d="M36780 6603 c-184 -14 -451 -73 -618 -137 -202 -77 -440 -216 -617
-359 -111 -89 -305 -292 -396 -412 -302 -402 -478 -865 -535 -1405 -23 -222
-15 -678 15 -875 55 -349 129 -590 276 -890 313 -637 857 -1098 1489 -1260
328 -84 688 -96 1012 -34 544 104 1092 472 1382 928 l47 73 5 -363 c5 -354 6
-365 28 -406 35 -66 79 -110 139 -140 48 -23 69 -27 142 -27 69 0 95 4 133 23
66 32 125 92 156 159 l27 57 0 2350 c0 2247 -1 2352 -18 2402 -24 70 -92 144
-159 174 -80 36 -202 34 -280 -4 -69 -34 -121 -91 -148 -164 -19 -50 -20 -78
-20 -390 l0 -337 -68 105 c-417 639 -1175 994 -1992 932z m503 -598 c384 -50
693 -204 978 -485 322 -318 524 -732 600 -1232 29 -189 31 -531 5 -718 -54
-392 -173 -721 -364 -1006 -348 -518 -855 -794 -1457 -794 -642 0 -1197 326
-1527 896 -209 363 -310 768 -310 1249 0 417 70 748 227 1070 185 382 470 677
824 855 304 152 671 211 1024 165z"/>
<path d="M30187 6543 c-58 -20 -128 -79 -164 -140 -34 -59 -43 -159 -19 -231
22 -64 91 -143 154 -174 l47 -23 1306 -5 1305 -5 -1512 -2085 c-833 -1147
-1523 -2107 -1536 -2135 -15 -34 -23 -76 -26 -132 -3 -71 -1 -89 21 -137 34
-74 98 -141 155 -163 45 -17 134 -18 1772 -18 l1725 0 49 24 c60 30 115 83
141 136 27 57 32 164 9 223 -22 60 -96 139 -154 166 -45 21 -49 21 -1450 26
l-1406 5 1513 2085 c980 1352 1523 2108 1543 2151 72 155 15 333 -131 414
l-54 30 -1620 2 c-1463 2 -1625 0 -1668 -14z"/>
</g>
</svg>
