<?xml version="1.0" standalone="no"?>
<!DOCTYPE svg PUBLIC "-//W3C//DTD SVG 20010904//EN"
 "http://www.w3.org/TR/2001/REC-SVG-20010904/DTD/svg10.dtd">
<svg version="1.0" xmlns="http://www.w3.org/2000/svg"
 width="640.000000pt" height="640.000000pt" viewBox="0 0 640.000000 640.000000"
 preserveAspectRatio="xMidYMid meet">

<g transform="translate(0.000000,640.000000) scale(0.100000,-0.100000)"
fill="#000000" stroke="none">
<path d="M1616 4803 c-22 -142 -50 -367 -70 -564 l-5 -46 81 -32 c44 -17 82
-30 84 -29 1 2 28 65 58 140 64 161 135 302 171 341 61 65 36 62 517 65 l438
3 -2 -1527 -3 -1526 -39 -34 c-51 -44 -159 -88 -312 -126 l-124 -32 0 -78 0
-78 760 0 760 0 0 79 0 79 -72 17 c-162 36 -341 109 -385 157 -17 19 -18 83
-21 1544 l-2 1524 389 0 c240 0 409 -4 440 -11 99 -21 139 -98 197 -381 l28
-138 88 0 c48 0 88 3 88 6 0 4 9 59 20 124 31 181 60 405 67 516 l6 100 -45
37 -45 37 -1520 0 -1520 0 -27 -167z"/>
</g>
</svg>
