<?xml version="1.0" encoding="UTF-8"?>
<!DOCTYPE svg PUBLIC "-//W3C//DTD SVG 1.1//EN" "http://www.w3.org/Graphics/SVG/1.1/DTD/svg11.dtd">
<svg xmlns="http://www.w3.org/2000/svg" version="1.1" width="1024px" height="864px" style="shape-rendering:geometricPrecision; text-rendering:geometricPrecision; image-rendering:optimizeQuality; fill-rule:evenodd; clip-rule:evenodd" xmlns:xlink="http://www.w3.org/1999/xlink">
<g><path style="opacity:0.282" fill="#210d1d" d="M 542.5,51.5 C 517.823,51.3089 493.156,51.6423 468.5,52.5C 482.633,50.9607 496.966,50.2941 511.5,50.5C 522.005,50.5002 532.339,50.8335 542.5,51.5 Z"/></g>
<g><path style="opacity:1" fill="#020303" d="M 542.5,51.5 C 551.214,51.6382 559.88,52.3049 568.5,53.5C 588.398,56.9298 608.398,60.5964 628.5,64.5C 629.714,66.925 631.714,68.425 634.5,69C 643.324,69.9327 651.324,71.266 658.5,73C 661.764,75.5652 665.264,77.7319 669,79.5C 669.804,78.1955 670.971,77.5288 672.5,77.5C 675.42,78.5856 678.42,79.2523 681.5,79.5C 714.239,90.3739 745.239,104.707 774.5,122.5C 774.414,123.496 774.748,124.329 775.5,125C 782.743,128.949 789.41,133.616 795.5,139C 798.959,139.984 802.292,141.15 805.5,142.5C 818.606,150.729 830.606,160.396 841.5,171.5C 840.874,175.375 842.541,177.209 846.5,177C 850,180.5 853.5,184 857,187.5C 857.333,189.5 857.667,191.5 858,193.5C 859.011,192.663 860.178,192.33 861.5,192.5C 861.239,196.044 862.905,197.878 866.5,198C 867.128,201.967 869.295,204.801 873,206.5C 873.494,208.134 873.66,209.801 873.5,211.5C 874.552,211.351 875.552,211.517 876.5,212C 875.66,213.666 876.16,213.833 878,212.5C 880.812,215.324 883.312,218.491 885.5,222C 886.448,222.483 887.448,222.649 888.5,222.5C 935.415,281.064 962.582,348.064 970,423.5C 974.01,547.607 930.177,651.107 838.5,734C 752.097,803.71 653.097,842.043 541.5,849C 518.143,849.792 494.81,849.626 471.5,848.5C 466.034,847.276 460.367,846.443 454.5,846C 453.504,844.987 452.504,844.154 451.5,843.5C 444.353,844.956 437.353,844.456 430.5,842C 431.784,841.316 432.951,841.483 434,842.5C 434.333,841.833 434.667,841.167 435,840.5C 436.183,841.731 437.349,841.731 438.5,840.5C 435.225,839.556 431.892,838.889 428.5,838.5C 426.327,840.308 424.493,840.308 423,838.5C 422.5,839 422,839.5 421.5,840C 418.305,840.181 415.305,840.681 412.5,841.5C 377.554,834.96 343.887,824.626 311.5,810.5C 309.879,808.853 308.713,806.853 308,804.5C 303.49,805.527 299.323,804.527 295.5,801.5C 294.218,799.378 294.718,797.711 297,796.5C 298.799,799.833 300.966,800.166 303.5,797.5C 300.55,796.376 297.717,795.042 295,793.5C 294.692,794.308 294.192,794.975 293.5,795.5C 292.689,793.609 291.356,792.276 289.5,791.5C 285.959,793.071 281.959,794.071 277.5,794.5C 278.399,789.549 277.065,788.549 273.5,791.5C 271.208,790.21 269.208,788.543 267.5,786.5C 265.885,785.846 264.218,785.346 262.5,785C 265.281,782.96 268.281,781.293 271.5,780C 269.94,777.341 267.607,776.174 264.5,776.5C 264.33,777.822 264.663,778.989 265.5,780C 265,780.5 264.5,781 264,781.5C 264.147,779.54 263.147,777.873 261,776.5C 259.437,777.102 259.604,777.935 261.5,779C 261.167,779.167 260.833,779.333 260.5,779.5C 258.299,777.167 255.799,776.834 253,778.5C 251.08,777.912 249.413,776.912 248,775.5C 246.442,776.345 245.442,775.679 245,773.5C 243.224,774.536 241.391,774.536 239.5,773.5C 177.404,735.237 129.237,683.904 95,619.5C 62.3462,555.397 48.8462,487.397 54.5,415.5C 57.037,406.509 58.3703,397.176 58.5,387.5C 58.9586,380.54 60.2919,373.873 62.5,367.5C 63.5578,365.192 64.7245,362.858 66,360.5C 66.1554,362.856 66.1554,365.189 66,367.5C 67.5333,367.056 69.0333,366.723 70.5,366.5C 66.8437,362.672 66.5104,358.505 69.5,354C 68.9186,353.107 68.5852,352.107 68.5,351C 73.3576,339.229 77.0242,327.063 79.5,314.5C 83.5236,302.788 88.8569,291.788 95.5,281.5C 96.7498,281.423 97.5831,280.756 98,279.5C 98.3333,280.167 98.6667,280.833 99,281.5C 100.012,276.181 102.678,271.515 107,267.5C 108.289,264.649 108.789,261.649 108.5,258.5C 117.633,243.033 128.299,228.699 140.5,215.5C 146.842,209.157 152.842,202.491 158.5,195.5C 163.562,191.441 167.895,186.774 171.5,181.5C 172.833,180.5 174.167,179.5 175.5,178.5C 179.1,176.57 182.1,173.903 184.5,170.5C 186.239,167.757 188.573,165.757 191.5,164.5C 195.463,161.871 199.129,158.871 202.5,155.5C 206.568,151.101 211.235,147.435 216.5,144.5C 220.392,142.938 223.725,140.605 226.5,137.5C 235.022,130.325 244.356,124.325 254.5,119.5C 259.09,117.872 263.423,115.705 267.5,113C 269.134,112.506 270.801,112.34 272.5,112.5C 272.5,111.5 272.5,110.5 272.5,109.5C 279.752,107.207 286.419,103.874 292.5,99.5C 295.088,97.4082 298.088,96.0749 301.5,95.5C 313.39,91.2076 325.057,86.5409 336.5,81.5C 342.227,80.3147 347.894,78.8147 353.5,77C 356.174,76.3299 358.507,75.1632 360.5,73.5C 361.568,72.5655 362.901,72.2322 364.5,72.5C 373.159,70.9218 381.492,68.5885 389.5,65.5C 396.886,63.0738 404.552,61.4071 412.5,60.5C 427.586,59.3203 442.586,56.987 457.5,53.5C 461.064,52.5773 464.731,52.244 468.5,52.5C 493.156,51.6423 517.823,51.3089 542.5,51.5 Z"/></g>
<g><path style="opacity:0.31" fill="#241426" d="M 457.5,53.5 C 442.586,56.987 427.586,59.3203 412.5,60.5C 427.185,56.972 442.185,54.6387 457.5,53.5 Z"/></g>
<g><path style="opacity:0.129" fill="#372136" d="M 568.5,53.5 C 588.998,55.8608 609.331,59.1941 629.5,63.5C 629.5,64.1667 629.167,64.5 628.5,64.5C 608.398,60.5964 588.398,56.9298 568.5,53.5 Z"/></g>
<g><path style="opacity:0.908" fill="#1b101a" d="M 629.5,63.5 C 647.195,67.9196 664.529,73.2529 681.5,79.5C 678.42,79.2523 675.42,78.5856 672.5,77.5C 670.971,77.5288 669.804,78.1955 669,79.5C 665.264,77.7319 661.764,75.5652 658.5,73C 651.324,71.266 643.324,69.9327 634.5,69C 631.714,68.425 629.714,66.925 628.5,64.5C 629.167,64.5 629.5,64.1667 629.5,63.5 Z"/></g>
<g><path style="opacity:0.243" fill="#351f36" d="M 389.5,65.5 C 381.492,68.5885 373.159,70.9218 364.5,72.5C 372.519,69.409 380.852,67.0757 389.5,65.5 Z"/></g>
<g><path style="opacity:0.467" fill="#332131" d="M 360.5,73.5 C 358.507,75.1632 356.174,76.3299 353.5,77C 347.894,78.8147 342.227,80.3147 336.5,81.5C 344.216,78.2613 352.216,75.5946 360.5,73.5 Z"/></g>
<g><path style="opacity:0.176" fill="#3a253b" d="M 336.5,81.5 C 325.057,86.5409 313.39,91.2076 301.5,95.5C 312.624,89.6762 324.291,85.0095 336.5,81.5 Z"/></g>
<g><path style="opacity:0.192" fill="#382339" d="M 292.5,99.5 C 286.419,103.874 279.752,107.207 272.5,109.5C 278.849,105.659 285.516,102.325 292.5,99.5 Z"/></g>
<g><path style="opacity:0.227" fill="#2d1e2f" d="M 272.5,109.5 C 272.5,110.5 272.5,111.5 272.5,112.5C 270.801,112.34 269.134,112.506 267.5,113C 263.423,115.705 259.09,117.872 254.5,119.5C 259.847,115.156 265.847,111.823 272.5,109.5 Z"/></g>
<g><path style="opacity:0.856" fill="#1b101a" d="M 774.5,122.5 C 782.44,126.472 790.107,130.972 797.5,136C 800.42,137.946 803.087,140.113 805.5,142.5C 802.292,141.15 798.959,139.984 795.5,139C 789.41,133.616 782.743,128.949 775.5,125C 774.748,124.329 774.414,123.496 774.5,122.5 Z"/></g>
<g><path style="opacity:0.212" fill="#382439" d="M 226.5,137.5 C 223.725,140.605 220.392,142.938 216.5,144.5C 219.275,141.395 222.608,139.062 226.5,137.5 Z"/></g>
<g><path style="opacity:0.239" fill="#2f1d30" d="M 202.5,155.5 C 199.129,158.871 195.463,161.871 191.5,164.5C 194.29,160.372 197.957,157.372 202.5,155.5 Z"/></g>
<g><path style="opacity:0.271" fill="#351e35" d="M 184.5,170.5 C 182.1,173.903 179.1,176.57 175.5,178.5C 177.9,175.097 180.9,172.43 184.5,170.5 Z"/></g>
<g><path style="opacity:0.204" fill="#3f2d40" d="M 171.5,181.5 C 167.895,186.774 163.562,191.441 158.5,195.5C 162.105,190.226 166.438,185.559 171.5,181.5 Z"/></g>
<g><path style="opacity:0.42" fill="#332232" d="M 158.5,195.5 C 152.842,202.491 146.842,209.157 140.5,215.5C 145.447,207.887 151.447,201.22 158.5,195.5 Z"/></g>
<g><path style="opacity:0.875" fill="#160c16" d="M 841.5,171.5 C 855.496,183.33 868.33,196.33 880,210.5C 883.098,214.383 885.932,218.383 888.5,222.5C 887.448,222.649 886.448,222.483 885.5,222C 883.312,218.491 880.812,215.324 878,212.5C 876.16,213.833 875.66,213.666 876.5,212C 875.552,211.517 874.552,211.351 873.5,211.5C 873.66,209.801 873.494,208.134 873,206.5C 869.295,204.801 867.128,201.967 866.5,198C 862.905,197.878 861.239,196.044 861.5,192.5C 860.178,192.33 859.011,192.663 858,193.5C 857.667,191.5 857.333,189.5 857,187.5C 853.5,184 850,180.5 846.5,177C 842.541,177.209 840.874,175.375 841.5,171.5 Z"/></g>
<g><path style="opacity:1" fill="#797979" d="M 354.5,241.5 C 348.464,241.36 342.464,241.693 336.5,242.5C 339.695,240.97 343.195,240.304 347,240.5C 349.69,240.503 352.19,240.836 354.5,241.5 Z"/></g>
<g><path style="opacity:1" fill="#fcfcfc" d="M 354.5,241.5 C 370.611,245.78 380.445,256.113 384,272.5C 385.043,275.757 385.543,279.09 385.5,282.5C 385.41,285.152 386.076,287.485 387.5,289.5C 387.5,289.833 387.5,290.167 387.5,290.5C 387.41,293.152 388.076,295.485 389.5,297.5C 390.768,299.905 391.435,302.572 391.5,305.5C 391.41,308.152 392.076,310.485 393.5,312.5C 393.41,315.152 394.076,317.485 395.5,319.5C 395.41,322.152 396.076,324.485 397.5,326.5C 398.11,327.391 398.443,328.391 398.5,329.5C 398.345,332.716 399.345,335.383 401.5,337.5C 401.5,337.833 401.5,338.167 401.5,338.5C 401.672,340.492 401.005,342.158 399.5,343.5C 402.063,345.034 404.063,347.034 405.5,349.5C 415.558,377.79 427.391,405.457 441,432.5C 442.97,436.129 445.304,439.462 448,442.5C 479.014,431.627 507.847,416.794 534.5,398C 563.718,372.025 597.385,354.359 635.5,345C 653.258,341.396 670.924,341.729 688.5,346C 700.471,349.641 708.971,357.141 714,368.5C 715.604,382.682 710.771,394.182 699.5,403C 690.445,408.694 680.779,413.027 670.5,416C 639.991,422.459 609.991,430.459 580.5,440C 563.351,446.815 549.851,457.982 540,473.5C 530.728,501.565 537.561,525.065 560.5,544C 578.652,557.3 598.985,565.3 621.5,568C 654.548,570.039 687.548,571.873 720.5,573.5C 733.292,575.198 746.292,575.865 759.5,575.5C 774.634,575.814 787.467,581.481 798,592.5C 799.122,594.407 799.955,596.407 800.5,598.5C 801.2,602.798 801.533,607.131 801.5,611.5C 794.92,625.298 783.92,632.298 768.5,632.5C 753.812,631.276 739.145,629.943 724.5,628.5C 719.402,627.043 714.069,626.376 708.5,626.5C 676.572,623.368 644.572,620.535 612.5,618C 603.281,616.566 594.281,614.733 585.5,612.5C 582.495,610.723 579.162,609.723 575.5,609.5C 553.029,602.17 533.196,590.503 516,574.5C 518.828,583.886 522.162,593.219 526,602.5C 528.151,617.696 521.985,627.862 507.5,633C 496.571,635.617 487.738,632.45 481,623.5C 461.8,582.76 440.8,543.094 418,504.5C 411.708,507.855 405.208,510.521 398.5,512.5C 394.851,513.267 391.518,514.6 388.5,516.5C 354.314,528.543 319.647,539.21 284.5,548.5C 281.848,548.41 279.515,549.076 277.5,550.5C 269.429,551.448 261.429,552.781 253.5,554.5C 244.383,554.928 235.383,554.262 226.5,552.5C 213.726,546.623 208.559,536.623 211,522.5C 221.918,504.999 232.585,487.333 243,469.5C 267.905,420.375 287.739,369.375 302.5,316.5C 303.924,314.485 304.59,312.152 304.5,309.5C 305.835,304.488 307.168,299.488 308.5,294.5C 309.924,292.485 310.59,290.152 310.5,287.5C 310.659,283.709 311.325,280.042 312.5,276.5C 314.074,274.898 314.741,272.898 314.5,270.5C 314.5,270.167 314.5,269.833 314.5,269.5C 316.277,266.495 317.277,263.162 317.5,259.5C 321.514,251.313 327.847,245.647 336.5,242.5C 342.464,241.693 348.464,241.36 354.5,241.5 Z"/></g>
<g><path style="opacity:1" fill="#9a9a9a" d="M 317.5,259.5 C 317.277,263.162 316.277,266.495 314.5,269.5C 314.723,265.838 315.723,262.505 317.5,259.5 Z"/></g>
<g><path style="opacity:0.878" fill="#1c121b" d="M 108.5,258.5 C 108.789,261.649 108.289,264.649 107,267.5C 102.678,271.515 100.012,276.181 99,281.5C 98.6667,280.833 98.3333,280.167 98,279.5C 97.5831,280.756 96.7498,281.423 95.5,281.5C 99.0773,273.339 103.411,265.672 108.5,258.5 Z"/></g>
<g><path style="opacity:1" fill="#898989" d="M 314.5,270.5 C 314.741,272.898 314.074,274.898 312.5,276.5C 312.259,274.102 312.926,272.102 314.5,270.5 Z"/></g>
<g><path style="opacity:1" fill="#9f9f9f" d="M 385.5,282.5 C 386.924,284.515 387.59,286.848 387.5,289.5C 386.076,287.485 385.41,285.152 385.5,282.5 Z"/></g>
<g><path style="opacity:1" fill="#919191" d="M 310.5,287.5 C 310.59,290.152 309.924,292.485 308.5,294.5C 308.41,291.848 309.076,289.515 310.5,287.5 Z"/></g>
<g><path style="opacity:1" fill="#9c9c9c" d="M 387.5,290.5 C 388.924,292.515 389.59,294.848 389.5,297.5C 388.076,295.485 387.41,293.152 387.5,290.5 Z"/></g>
<g><path style="opacity:1" fill="#9fa1a0" d="M 391.5,305.5 C 392.924,307.515 393.59,309.848 393.5,312.5C 392.076,310.485 391.41,308.152 391.5,305.5 Z"/></g>
<g><path style="opacity:1" fill="#818181" d="M 304.5,309.5 C 304.59,312.152 303.924,314.485 302.5,316.5C 302.41,313.848 303.076,311.515 304.5,309.5 Z"/></g>
<g><path style="opacity:1" fill="#a5a7a6" d="M 393.5,312.5 C 394.924,314.515 395.59,316.848 395.5,319.5C 394.076,317.485 393.41,315.152 393.5,312.5 Z"/></g>
<g><path style="opacity:1" fill="#afafaf" d="M 395.5,319.5 C 396.924,321.515 397.59,323.848 397.5,326.5C 396.076,324.485 395.41,322.152 395.5,319.5 Z"/></g>
<g><path style="opacity:0.827" fill="#160b15" d="M 79.5,314.5 C 77.0242,327.063 73.3576,339.229 68.5,351C 68.5852,352.107 68.9186,353.107 69.5,354C 66.5104,358.505 66.8437,362.672 70.5,366.5C 69.0333,366.723 67.5333,367.056 66,367.5C 66.1554,365.189 66.1554,362.856 66,360.5C 64.7245,362.858 63.5578,365.192 62.5,367.5C 66.4862,349.197 72.1529,331.53 79.5,314.5 Z"/></g>
<g><path style="opacity:1" fill="#a3a3a3" d="M 398.5,329.5 C 399.871,331.936 400.871,334.603 401.5,337.5C 399.345,335.383 398.345,332.716 398.5,329.5 Z"/></g>
<g><path style="opacity:1" fill="#c5c5c5" d="M 401.5,338.5 C 403.204,341.939 404.538,345.605 405.5,349.5C 404.063,347.034 402.063,345.034 399.5,343.5C 401.005,342.158 401.672,340.492 401.5,338.5 Z"/></g>
<g><path style="opacity:1" fill="#070707" d="M 349.5,352.5 C 355.881,370.806 362.381,389.14 369,407.5C 376.487,424.436 384.653,441.102 393.5,457.5C 390.178,459.828 386.511,461.661 382.5,463C 355.925,472.801 328.592,479.635 300.5,483.5C 299.5,483.167 298.5,482.833 297.5,482.5C 307.817,461.378 317.65,440.045 327,418.5C 335.434,396.674 342.934,374.674 349.5,352.5 Z"/></g>
<g><path style="opacity:0.712" fill="#201321" d="M 58.5,387.5 C 58.3703,397.176 57.037,406.509 54.5,415.5C 54.8649,405.895 56.1983,396.561 58.5,387.5 Z"/></g>
<g><path style="opacity:1" fill="#191919" d="M 480.5,493.5 C 479.833,495.5 479.167,497.5 478.5,499.5C 475.844,495.529 473.177,491.529 470.5,487.5C 473.862,485.379 477.529,484.045 481.5,483.5C 480.949,486.807 480.616,490.14 480.5,493.5 Z"/></g>
<g><path style="opacity:1" fill="#818181" d="M 480.5,493.5 C 480.808,495.924 480.474,498.257 479.5,500.5C 478.893,500.376 478.56,500.043 478.5,499.5C 479.167,497.5 479.833,495.5 480.5,493.5 Z"/></g>
<g><path style="opacity:1" fill="#323232" d="M 398.5,512.5 C 397.047,513.825 397.381,514.658 399.5,515C 398.101,515.595 396.768,515.428 395.5,514.5C 393.382,515.946 391.049,516.613 388.5,516.5C 391.518,514.6 394.851,513.267 398.5,512.5 Z"/></g>
<g><path style="opacity:1" fill="#454545" d="M 284.5,548.5 C 282.485,549.924 280.152,550.59 277.5,550.5C 279.515,549.076 281.848,548.41 284.5,548.5 Z"/></g>
<g><path style="opacity:1" fill="#949494" d="M 226.5,552.5 C 235.383,554.262 244.383,554.928 253.5,554.5C 246.679,555.655 239.679,555.821 232.5,555C 230.277,554.434 228.277,553.6 226.5,552.5 Z"/></g>
<g><path style="opacity:1" fill="#c1c3c2" d="M 720.5,573.5 C 733.676,573.756 746.676,574.423 759.5,575.5C 746.292,575.865 733.292,575.198 720.5,573.5 Z"/></g>
<g><path style="opacity:1" fill="#8d8d8d" d="M 800.5,598.5 C 801.952,600.848 802.618,603.514 802.5,606.5C 802.493,608.369 802.16,610.036 801.5,611.5C 801.533,607.131 801.2,602.798 800.5,598.5 Z"/></g>
<g><path style="opacity:1" fill="#9d9d9d" d="M 575.5,609.5 C 579.162,609.723 582.495,610.723 585.5,612.5C 581.838,612.277 578.505,611.277 575.5,609.5 Z"/></g>
<g><path style="opacity:1" fill="#969696" d="M 708.5,626.5 C 714.069,626.376 719.402,627.043 724.5,628.5C 718.949,628.473 713.616,627.806 708.5,626.5 Z"/></g>
<g><path style="opacity:1" fill="#0e070f" d="M 239.5,773.5 C 241.391,774.536 243.224,774.536 245,773.5C 245.442,775.679 246.442,776.345 248,775.5C 249.413,776.912 251.08,777.912 253,778.5C 255.799,776.834 258.299,777.167 260.5,779.5C 260.833,779.333 261.167,779.167 261.5,779C 259.604,777.935 259.437,777.102 261,776.5C 263.147,777.873 264.147,779.54 264,781.5C 264.5,781 265,780.5 265.5,780C 264.663,778.989 264.33,777.822 264.5,776.5C 267.607,776.174 269.94,777.341 271.5,780C 268.281,781.293 265.281,782.96 262.5,785C 264.218,785.346 265.885,785.846 267.5,786.5C 269.208,788.543 271.208,790.21 273.5,791.5C 277.065,788.549 278.399,789.549 277.5,794.5C 281.959,794.071 285.959,793.071 289.5,791.5C 291.356,792.276 292.689,793.609 293.5,795.5C 294.192,794.975 294.692,794.308 295,793.5C 297.717,795.042 300.55,796.376 303.5,797.5C 300.966,800.166 298.799,799.833 297,796.5C 294.718,797.711 294.218,799.378 295.5,801.5C 299.323,804.527 303.49,805.527 308,804.5C 308.713,806.853 309.879,808.853 311.5,810.5C 286.031,800.767 262.031,788.434 239.5,773.5 Z"/></g>
<g><path style="opacity:0.963" fill="#110611" d="M 471.5,848.5 C 451.709,847.196 432.042,844.863 412.5,841.5C 415.305,840.681 418.305,840.181 421.5,840C 422,839.5 422.5,839 423,838.5C 424.493,840.308 426.327,840.308 428.5,838.5C 431.892,838.889 435.225,839.556 438.5,840.5C 437.349,841.731 436.183,841.731 435,840.5C 434.667,841.167 434.333,841.833 434,842.5C 432.951,841.483 431.784,841.316 430.5,842C 437.353,844.456 444.353,844.956 451.5,843.5C 452.504,844.154 453.504,844.987 454.5,846C 460.367,846.443 466.034,847.276 471.5,848.5 Z"/></g>
</svg>
